<svg width="60" height="60" viewBox="0 0 60 60" fill="none" xmlns="http://www.w3.org/2000/svg">
<path d="M9.22034 12.1875L13.0027 54.6061L29.9742 59.317L46.9932 54.6L50.7797 12.1875H9.22034ZM41.6625 35.8537L40.561 46.1156L40.5652 46.9945L30 49.9453V49.9458L29.9916 49.9528L19.3421 47.0348L18.6216 38.9062H23.8439L24.2142 43.0153L30.0019 44.5598L30 44.5669V44.5519L35.8097 42.9136L36.4228 36.0938H24.2789L24.1749 34.9898L23.9377 32.3428L23.8135 30.9375H36.885L37.3603 25.7812H17.4511L17.3466 24.5677L17.1094 21.7411L16.9852 20.1562H43.0463L42.9211 21.7191L41.6625 35.8537ZM41.7188 6.73781L38.3677 2.8125H41.7188V0.46875H34.2188V2.51391L38.1516 6.09375H34.2188V8.4375H41.7188V6.73781ZM32.8125 6.73781L29.6217 2.8125H32.8125V0.46875H25.7813V2.51391L29.4061 6.09375H25.7813V8.4375H32.8125V6.73781ZM24.375 6.09375H20.625V2.8125H24.375V0.46875H17.8125V8.4375H24.375V6.09375Z" fill="#1572B6"/>
</svg>
