<svg width="60" height="60" viewBox="0 0 60 60" fill="none" xmlns="http://www.w3.org/2000/svg">
<path d="M58.4728 27.3646L32.6367 1.52992C31.1498 0.0421094 28.7367 0.0421094 27.2475 1.52992L21.8836 6.89523L28.6889 13.7005C30.2709 13.1666 32.084 13.5248 33.3445 14.7852C33.9452 15.3865 34.3646 16.1446 34.5547 16.973C34.7447 17.8013 34.6978 18.6665 34.4194 19.4695L40.9781 26.0291C42.5648 25.4821 44.3962 25.8356 45.6628 27.1049C47.4347 28.8754 47.4347 31.7455 45.6628 33.517C45.2417 33.9382 44.7418 34.2724 44.1915 34.5004C43.6413 34.7284 43.0515 34.8458 42.4558 34.8458C41.8602 34.8458 41.2704 34.7284 40.7202 34.5004C40.1699 34.2724 39.67 33.9382 39.2489 33.517C38.6163 32.8839 38.185 32.0779 38.0094 31.2004C37.8339 30.3228 37.9218 29.4129 38.2622 28.5852L32.1459 22.4685L32.145 38.5659C32.5887 38.7844 32.9939 39.0738 33.3445 39.4227C35.1159 41.1932 35.1159 44.0624 33.3445 45.8366C31.5731 47.6071 28.702 47.6071 26.9325 45.8366C25.1615 44.0629 25.0162 41.1937 26.7867 39.4227C27.2245 38.9854 27.6562 38.6549 28.125 38.4337V22.1873C27.6562 21.966 27.225 21.6379 26.7862 21.1977C25.4451 19.8571 25.1944 17.8884 25.8825 16.2402L19.2108 9.53102L1.51357 27.2451C0.0252918 28.7343 0.0346668 31.1474 1.52295 32.6357L27.3633 58.4704C28.8506 59.9582 31.2656 59.9582 32.7553 58.4704L58.4709 32.7557C59.9592 31.267 59.9606 28.8524 58.4728 27.3646Z" fill="#F34F29"/>
</svg>
