<svg width="60" height="60" viewBox="0 0 60 60" fill="none" xmlns="http://www.w3.org/2000/svg">
<path d="M9.17297 12.6563L12.9638 54.8058L29.9742 59.3443L47.032 54.8916L50.827 12.6563H9.17297ZM42.9422 22.2521L42.7045 24.9868L42.6 26.25H22.6458L23.1225 31.875H42.1256L41.9986 32.9208L40.7728 46.4719L40.6828 47.2641L30 50.1394V50.1371L29.9874 50.1427L19.3106 47.3696L18.5859 39.375H23.8209L24.1917 43.3407L29.9972 44.8121L30 44.7024V44.708L35.8181 43.4663L36.4256 37.0313H18.353L17.0714 22.5769L16.9463 21.0938H43.0669L42.9422 22.2521ZM13.1044 0.762695H15.7397V3.36707H18.1509V0.762695H20.7867V8.64801H18.1509V6.00754H15.7402V8.64801H13.1044V0.762695ZM24.2522 3.37785H21.9319V0.762695H29.2092V3.37785H26.888V8.64801H24.2522V3.37785ZM30.3642 0.762695H33.112L34.8028 3.53348L36.4917 0.762695H39.2409V8.64801H36.6155V4.73957L34.8028 7.54316H34.7569L32.9428 4.73957V8.64801H30.3638V0.762695H30.3642ZM40.553 0.762695H43.1892V6.04176H46.8956V8.64848H40.553V0.762695Z" fill="#E44D26"/>
</svg>
