<svg width="90" height="90" viewBox="0 0 90 90" fill="none" xmlns="http://www.w3.org/2000/svg">
<path d="M21.4545 5C18.442 5 16 7.44208 16 10.4545V79.5455C16 82.5579 18.442 85 21.4545 85H68.7265C71.7389 85 74.181 82.5579 74.181 79.5455V26.8182L52.3631 5H21.4545Z" fill="#20A464"/>
<path d="M74.1851 45.4549V26.8185L71.0034 23.6367H55.6593C54.4445 23.6367 53.8361 25.1055 54.6951 25.9646L74.1851 45.4549Z" fill="url(#paint0_linear_816_5287)"/>
<path d="M52.3633 5L74.1811 26.8182H57.8177C54.8053 26.8182 52.3633 24.3761 52.3633 21.3636V5Z" fill="#8ED1B1"/>
<path fill-rule="evenodd" clip-rule="evenodd" d="M59.6374 44.0918V70.4554H30.5469V44.0918H59.6374ZM43.274 47.7282H34.1832V52.2736H43.274V47.7282ZM46.9103 52.2736V47.7282H56.0011V52.2736H46.9103ZM43.274 55.0009H34.1832V59.5463H43.274V55.0009ZM46.9103 59.5463V55.0009H56.0011V59.5463H46.9103ZM43.274 62.2736H34.1832V66.8191H43.274V62.2736ZM46.9103 66.8191V62.2736H56.0011V66.8191H46.9103Z" fill="white"/>
<defs>
<linearGradient id="paint0_linear_816_5287" x1="64.239" y1="45.4549" x2="64.239" y2="23.1822" gradientUnits="userSpaceOnUse">
<stop stop-color="#20A464"/>
<stop offset="1" stop-color="#207E55"/>
</linearGradient>
</defs>
</svg>
