<svg width="90" height="85" viewBox="0 0 90 85" fill="none" xmlns="http://www.w3.org/2000/svg">
<g filter="url(#filter0_dd_816_5258)">
<path d="M59.5894 30.4127H79.5775C80.0266 30.4127 80.4713 30.5011 80.8862 30.673C81.3012 30.8449 81.6782 31.0968 81.9958 31.4144C82.3133 31.732 82.5653 32.109 82.7371 32.524C82.909 32.9389 82.9975 33.3836 82.9975 33.8328V52.2253C82.9975 55.5848 81.6629 58.8067 79.2875 61.1823C76.912 63.5578 73.6902 64.8924 70.3308 64.8924C66.9713 64.8924 63.7495 63.5578 61.3741 61.1823C58.9986 58.8067 57.6641 55.5848 57.6641 52.2253V32.2114C57.6635 31.9641 57.7138 31.7194 57.812 31.4925C57.9102 31.2656 58.0542 31.0613 58.2349 30.8925C58.4155 30.7237 58.6291 30.594 58.8621 30.5114C59.0952 30.4289 59.3428 30.3953 59.5894 30.4127Z" fill="#5059C9"/>
<path d="M70.3824 25.8511C74.7896 25.8511 78.3624 22.2782 78.3624 17.8709C78.3624 13.4635 74.7896 9.89062 70.3824 9.89062C65.9751 9.89062 62.4023 13.4635 62.4023 17.8709C62.4023 22.2782 65.9751 25.8511 70.3824 25.8511Z" fill="#5059C9"/>
</g>
<g filter="url(#filter1_dd_816_5258)">
<path d="M46.3863 25.8514C52.6964 25.8514 57.8117 20.7359 57.8117 14.4257C57.8117 8.11545 52.6964 3 46.3863 3C40.0763 3 34.9609 8.11545 34.9609 14.4257C34.9609 20.7359 40.0763 25.8514 46.3863 25.8514Z" fill="#7B83EB"/>
<g style="mix-blend-mode:multiply" opacity="0.3">
<path d="M63.5233 30.4121H29.2725C28.8167 30.4187 28.3667 30.515 27.9481 30.6956C27.5296 30.8762 27.1507 31.1374 26.8331 31.4644C26.5155 31.7914 26.2655 32.1778 26.0972 32.6014C25.929 33.0251 25.8458 33.4777 25.8525 33.9336V55.0115C25.7557 57.7687 26.215 60.5171 27.2033 63.0929C28.1916 65.6686 29.6884 68.019 31.6046 70.0037C33.5208 71.9885 35.8171 73.567 38.3565 74.6451C40.8959 75.7232 43.6264 76.2788 46.3852 76.2788C49.144 76.2788 51.8745 75.7232 54.4139 74.6451C56.9533 73.567 59.2496 71.9885 61.1658 70.0037C63.082 68.019 64.5789 65.6686 65.5671 63.0929C66.5554 60.5171 67.0148 57.7687 66.9179 55.0115V33.9336C66.9315 33.0173 66.5823 32.1329 65.9463 31.4732C65.3104 30.8135 64.4393 30.4321 63.5233 30.4121Z" fill="white"/>
</g>
<g style="mix-blend-mode:multiply" opacity="0.24">
<path d="M63.5272 30.4121H29.2764C28.8206 30.4187 28.3706 30.515 27.9521 30.6956C27.5335 30.8762 27.1546 31.1374 26.837 31.4644C26.5194 31.7914 26.2694 32.1778 26.1011 32.6014C25.9329 33.0251 25.8497 33.4777 25.8564 33.9336V55.0115C25.7596 57.7687 26.219 60.5171 27.2072 63.0929C28.1955 65.6686 29.6923 68.019 31.6085 70.0037C33.5247 71.9885 35.821 73.567 38.3604 74.6451C40.8998 75.7232 43.6304 76.2788 46.3891 76.2788C49.1479 76.2788 51.8784 75.7232 54.4178 74.6451C56.9573 73.567 59.2535 71.9885 61.1697 70.0037C63.0859 68.019 64.5828 65.6686 65.571 63.0929C66.5593 60.5171 67.0187 57.7687 66.9218 55.0115V33.9336C66.9354 33.0173 66.5862 32.1329 65.9502 31.4732C65.3143 30.8135 64.4433 30.4321 63.5272 30.4121Z" fill="white"/>
</g>
<path d="M63.5233 30.4121H29.2725C28.8167 30.4187 28.3667 30.515 27.9481 30.6956C27.5296 30.8762 27.1507 31.1374 26.8331 31.4644C26.5155 31.7914 26.2655 32.1778 26.0972 32.6014C25.929 33.0251 25.8458 33.4777 25.8525 33.9336V55.0115C25.7557 57.7687 26.215 60.5171 27.2033 63.0929C28.1916 65.6686 29.6884 68.019 31.6046 70.0037C33.5208 71.9885 35.8171 73.567 38.3565 74.6451C40.8959 75.7232 43.6264 76.2788 46.3852 76.2788C49.144 76.2788 51.8745 75.7232 54.4139 74.6451C56.9533 73.567 59.2496 71.9885 61.1658 70.0037C63.082 68.019 64.5789 65.6686 65.5671 63.0929C66.5554 60.5171 67.0148 57.7687 66.9179 55.0115V33.9336C66.9315 33.0173 66.5823 32.1329 65.9463 31.4732C65.3104 30.8135 64.4393 30.4321 63.5233 30.4121Z" fill="#7B83EB"/>
</g>
<g filter="url(#filter2_dd_816_5258)">
<g style="mix-blend-mode:multiply" opacity="0.48">
<path d="M40.6961 19.0137H6.42001C4.53119 19.0137 3 20.5449 3 22.4338V56.7108C3 58.5997 4.53119 60.1309 6.42001 60.1309H40.6961C42.5849 60.1309 44.1161 58.5997 44.1161 56.7108V22.4338C44.1161 20.5449 42.5849 19.0137 40.6961 19.0137Z" fill="white"/>
</g>
<g style="mix-blend-mode:multiply" opacity="0.24">
<path d="M40.6961 19.0107H6.42001C4.53119 19.0107 3 20.542 3 22.4308V56.7079C3 58.5967 4.53119 60.128 6.42001 60.128H40.6961C42.5849 60.128 44.1161 58.5967 44.1161 56.7079V22.4308C44.1161 20.542 42.5849 19.0107 40.6961 19.0107Z" fill="white"/>
</g>
<path d="M40.6961 19.0127H6.42001C4.53119 19.0127 3 20.5439 3 22.4328V56.7098C3 58.5987 4.53119 60.1299 6.42001 60.1299H40.6961C42.5849 60.1299 44.1161 58.5987 44.1161 56.7098V22.4328C44.1161 20.5439 42.5849 19.0127 40.6961 19.0127Z" fill="#4B53BC"/>
<path style="mix-blend-mode:soft-light" opacity="0.5" d="M40.7 19.0127H6.42392C4.5351 19.0127 3.00391 20.5439 3.00391 22.4328V56.7098C3.00391 58.5987 4.5351 60.1299 6.42392 60.1299H40.7C42.5888 60.1299 44.12 58.5987 44.12 56.7098V22.4328C44.12 20.5439 42.5888 19.0127 40.7 19.0127Z" fill="url(#paint0_linear_816_5258)"/>
<path d="M32.5843 31.958H25.7189V50.6039H21.3109V31.958H14.5469V28.4365H32.5843V31.958Z" fill="white"/>
</g>
<defs>
<filter id="filter0_dd_816_5258" x="52.2337" y="7.56331" width="36.9686" height="65.8627" filterUnits="userSpaceOnUse" color-interpolation-filters="sRGB">
<feFlood flood-opacity="0" result="BackgroundImageFix"/>
<feColorMatrix in="SourceAlpha" type="matrix" values="0 0 0 0 0 0 0 0 0 0 0 0 0 0 0 0 0 0 127 0" result="hardAlpha"/>
<feOffset dx="2.32731" dy="2.32731"/>
<feGaussianBlur stdDeviation="1.93943"/>
<feComposite in2="hardAlpha" operator="out"/>
<feColorMatrix type="matrix" values="0 0 0 0 0 0 0 0 0 0 0 0 0 0 0 0 0 0 0.25 0"/>
<feBlend mode="normal" in2="BackgroundImageFix" result="effect1_dropShadow_816_5258"/>
<feColorMatrix in="SourceAlpha" type="matrix" values="0 0 0 0 0 0 0 0 0 0 0 0 0 0 0 0 0 0 127 0" result="hardAlpha"/>
<feOffset dy="3.10308"/>
<feGaussianBlur stdDeviation="2.7152"/>
<feComposite in2="hardAlpha" operator="out"/>
<feColorMatrix type="matrix" values="0 0 0 0 0 0 0 0 0 0 0 0 0 0 0 0 0 0 0.15 0"/>
<feBlend mode="normal" in2="effect1_dropShadow_816_5258" result="effect2_dropShadow_816_5258"/>
<feBlend mode="normal" in="SourceGraphic" in2="effect2_dropShadow_816_5258" result="shape"/>
</filter>
<filter id="filter1_dd_816_5258" x="20.4095" y="0.67269" width="52.7303" height="84.1391" filterUnits="userSpaceOnUse" color-interpolation-filters="sRGB">
<feFlood flood-opacity="0" result="BackgroundImageFix"/>
<feColorMatrix in="SourceAlpha" type="matrix" values="0 0 0 0 0 0 0 0 0 0 0 0 0 0 0 0 0 0 127 0" result="hardAlpha"/>
<feOffset dx="2.32731" dy="2.32731"/>
<feGaussianBlur stdDeviation="1.93943"/>
<feComposite in2="hardAlpha" operator="out"/>
<feColorMatrix type="matrix" values="0 0 0 0 0 0 0 0 0 0 0 0 0 0 0 0 0 0 0.25 0"/>
<feBlend mode="normal" in2="BackgroundImageFix" result="effect1_dropShadow_816_5258"/>
<feColorMatrix in="SourceAlpha" type="matrix" values="0 0 0 0 0 0 0 0 0 0 0 0 0 0 0 0 0 0 127 0" result="hardAlpha"/>
<feOffset dy="3.10308"/>
<feGaussianBlur stdDeviation="2.7152"/>
<feComposite in2="hardAlpha" operator="out"/>
<feColorMatrix type="matrix" values="0 0 0 0 0 0 0 0 0 0 0 0 0 0 0 0 0 0 0.15 0"/>
<feBlend mode="normal" in2="effect1_dropShadow_816_5258" result="effect2_dropShadow_816_5258"/>
<feBlend mode="normal" in="SourceGraphic" in2="effect2_dropShadow_816_5258" result="shape"/>
</filter>
<filter id="filter2_dd_816_5258" x="-2.43039" y="16.6834" width="52.7576" height="51.9809" filterUnits="userSpaceOnUse" color-interpolation-filters="sRGB">
<feFlood flood-opacity="0" result="BackgroundImageFix"/>
<feColorMatrix in="SourceAlpha" type="matrix" values="0 0 0 0 0 0 0 0 0 0 0 0 0 0 0 0 0 0 127 0" result="hardAlpha"/>
<feOffset dx="2.32731" dy="2.32731"/>
<feGaussianBlur stdDeviation="1.93943"/>
<feComposite in2="hardAlpha" operator="out"/>
<feColorMatrix type="matrix" values="0 0 0 0 0 0 0 0 0 0 0 0 0 0 0 0 0 0 0.25 0"/>
<feBlend mode="normal" in2="BackgroundImageFix" result="effect1_dropShadow_816_5258"/>
<feColorMatrix in="SourceAlpha" type="matrix" values="0 0 0 0 0 0 0 0 0 0 0 0 0 0 0 0 0 0 127 0" result="hardAlpha"/>
<feOffset dy="3.10308"/>
<feGaussianBlur stdDeviation="2.7152"/>
<feComposite in2="hardAlpha" operator="out"/>
<feColorMatrix type="matrix" values="0 0 0 0 0 0 0 0 0 0 0 0 0 0 0 0 0 0 0.15 0"/>
<feBlend mode="normal" in2="effect1_dropShadow_816_5258" result="effect2_dropShadow_816_5258"/>
<feBlend mode="normal" in="SourceGraphic" in2="effect2_dropShadow_816_5258" result="shape"/>
</filter>
<linearGradient id="paint0_linear_816_5258" x1="10.1479" y1="16.3273" x2="36.9771" y2="62.7894" gradientUnits="userSpaceOnUse">
<stop stop-color="white" stop-opacity="0.5"/>
<stop offset="1" stop-opacity="0.7"/>
</linearGradient>
</defs>
</svg>
