<svg width="60" height="60" viewBox="0 0 60 60" fill="none" xmlns="http://www.w3.org/2000/svg">
<path d="M12.7664 0.961426C9.4022 0.961426 6.91361 3.90705 7.0247 7.10158C7.13158 10.17 6.99283 14.145 5.99204 17.386C4.98892 20.6372 3.29204 22.6917 0.520325 22.9561V25.95C3.29204 26.2139 4.98892 28.2689 5.99204 31.5202C6.99283 34.7611 7.13111 38.7361 7.0247 41.8046C6.91314 44.9991 9.4022 47.9442 12.7664 47.9442H47.2383C50.6025 47.9442 53.0911 44.9986 52.98 41.8046C52.8731 38.7361 53.0119 34.7611 54.0122 31.5202C55.0153 28.2694 56.708 26.2144 59.4797 25.95V22.9561C56.708 22.6922 55.0158 20.6372 54.0122 17.386C53.0119 14.145 52.8731 10.17 52.98 7.10158C53.0911 3.90705 50.6025 0.961426 47.2378 0.961426H12.7664ZM40.0074 29.8767C40.0074 34.2755 36.7252 36.9422 31.2788 36.9422H21.2372C21.1762 36.9422 21.1176 36.918 21.0745 36.8748C21.0313 36.8316 21.007 36.7731 21.007 36.7121V12.1842C21.007 12.154 21.0129 12.124 21.0244 12.096C21.036 12.068 21.0529 12.0426 21.0743 12.0212C21.0957 11.9998 21.1211 11.9828 21.149 11.9712C21.177 11.9596 21.2069 11.9536 21.2372 11.9536H31.2258C35.7675 11.9536 38.7478 14.4127 38.7478 18.188C38.7478 20.8378 36.743 23.2097 34.1883 23.6255V23.7642C37.6655 24.1453 40.0074 26.5524 40.0074 29.8767ZM30.2677 15.1228H24.9811V22.5863H29.4342C32.8758 22.5863 34.7738 21.2011 34.7738 18.7247C34.7738 16.4044 33.142 15.1228 30.2677 15.1228ZM24.9811 25.5478V33.7735H30.4631C34.0467 33.7735 35.9452 32.3363 35.9452 29.6344C35.9452 26.933 33.9938 25.5478 30.2325 25.5478H24.9811Z" fill="#7952B3"/>
<path d="M5.34277 56.9204V48.6057H7.70855C8.4273 48.6057 8.99746 48.7817 9.41902 49.1335C9.84027 49.4851 10.0509 49.9431 10.0509 50.5074C10.0509 50.9793 9.9234 51.3892 9.6684 51.737C9.41309 52.0848 9.06121 52.3321 8.61277 52.479V52.5024C9.1734 52.5681 9.62184 52.7806 9.95809 53.1399C10.2943 53.4956 10.4625 53.9595 10.4625 54.5317C10.4625 55.2429 10.2075 55.8188 9.69746 56.2595C9.18715 56.7001 8.5434 56.9204 7.76621 56.9204H5.34277ZM6.31684 49.487V52.1715H7.31434C7.84777 52.1715 8.26715 52.044 8.57246 51.789C8.87777 51.5296 9.03043 51.1662 9.03043 50.6987C9.03043 49.8909 8.49887 49.487 7.43574 49.487H6.31684ZM6.31684 53.0471V56.0392H7.63871C8.2109 56.0392 8.65355 55.9038 8.96668 55.6332C9.28355 55.3626 9.44199 54.9915 9.44199 54.5199C9.44199 53.5381 8.77324 53.0471 7.43574 53.0471H6.31684ZM14.504 57.061C13.6265 57.061 12.925 56.7846 12.3993 56.2318C11.8775 55.6752 11.6165 54.9388 11.6165 54.0226C11.6165 53.0254 11.889 52.2465 12.434 51.6859C12.979 51.1256 13.7154 50.8454 14.6432 50.8454C15.5282 50.8454 16.2182 51.1179 16.7132 51.6629C17.2117 52.2079 17.4609 52.9635 17.4609 53.9298C17.4609 54.877 17.1923 55.6367 16.6551 56.2088C16.1217 56.777 15.4046 57.061 14.504 57.061ZM14.5734 51.6456C13.9628 51.6456 13.4796 51.8543 13.124 52.2718C12.7684 52.6852 12.5906 53.2573 12.5906 53.9879C12.5906 54.6917 12.7703 55.2463 13.1296 55.652C13.489 56.0582 13.9703 56.2613 14.5734 56.2613C15.1881 56.2613 15.6598 56.0621 15.9886 55.6637C16.3207 55.2656 16.4868 54.6993 16.4868 53.9649C16.4868 53.2227 16.3207 52.6506 15.9886 52.2484C15.6598 51.8465 15.1881 51.6456 14.5734 51.6456ZM21.4621 57.061C20.5846 57.061 19.8831 56.7846 19.3575 56.2318C18.8356 55.6752 18.5746 54.9388 18.5746 54.0226C18.5746 53.0254 18.8471 52.2465 19.3921 51.6859C19.9371 51.1256 20.6736 50.8454 21.6014 50.8454C22.4864 50.8454 23.1764 51.1179 23.6714 51.6629C24.1701 52.2079 24.4195 52.9635 24.4195 53.9298C24.4195 54.877 24.1507 55.6367 23.6132 56.2088C23.0798 56.777 22.3628 57.061 21.4621 57.061ZM21.5315 51.6456C20.9209 51.6456 20.4378 51.8543 20.0821 52.2718C19.7265 52.6852 19.5487 53.2573 19.5487 53.9879C19.5487 54.6917 19.7284 55.2463 20.0878 55.652C20.4471 56.0582 20.9284 56.2613 21.5315 56.2613C22.1462 56.2613 22.6179 56.0621 22.9467 55.6637C23.2789 55.2656 23.445 54.6993 23.445 53.9649C23.445 53.2227 23.2789 52.6506 22.9467 52.2484C22.6179 51.8465 22.1462 51.6456 21.5315 51.6456ZM28.6926 56.8642C28.4686 56.9879 28.1728 57.0498 27.8053 57.0498C26.7656 57.0498 26.2457 56.4699 26.2457 55.3102V51.7965H25.2253V50.9846H26.2457V49.5352L27.1968 49.2277V50.9846H28.6926V51.7965H27.1968V55.142C27.1968 55.5401 27.2645 55.8243 27.3998 55.9946C27.5348 56.1646 27.7589 56.2496 28.072 56.2496C28.3117 56.2496 28.5186 56.184 28.6926 56.0527V56.8642ZM29.6029 56.7048V55.6843C30.1207 56.0668 30.6909 56.2581 31.3134 56.2581C32.1484 56.2581 32.5659 55.9799 32.5659 55.4237C32.5659 55.2649 32.5292 55.1315 32.4557 55.0234C32.3861 54.9112 32.2893 54.8126 32.1656 54.7276C32.0459 54.6426 31.9029 54.5673 31.7367 54.5016C31.5742 54.432 31.3982 54.3604 31.2089 54.287C30.9464 54.1826 30.7145 54.0782 30.5132 53.9738C30.3164 53.8657 30.1501 53.7459 30.0145 53.6143C29.8832 53.479 29.7828 53.3263 29.7131 53.1563C29.6475 52.9863 29.6146 52.7873 29.6146 52.5592C29.6146 52.281 29.6784 52.0356 29.8059 51.8227C29.9334 51.6062 30.1034 51.4265 30.3159 51.2837C30.5284 51.1368 30.7701 51.0265 31.0411 50.9527C31.3154 50.8793 31.5976 50.8426 31.8876 50.8426C32.4017 50.8426 32.8617 50.9316 33.2676 51.1098V52.0721C32.8307 51.7859 32.3281 51.6427 31.7596 51.6427C31.5818 51.6427 31.4215 51.664 31.2787 51.7065C31.1356 51.7452 31.0118 51.8015 30.9075 51.8752C30.8068 51.9484 30.7276 52.0371 30.6698 52.1415C30.6157 52.2421 30.5887 52.3543 30.5887 52.4781C30.5887 52.6324 30.6157 52.7618 30.6698 52.8662C30.7276 52.9706 30.8107 53.0634 30.9192 53.1446C31.0273 53.2259 31.1587 53.2993 31.3134 53.3649C31.4681 53.4306 31.644 53.5021 31.8412 53.5796C32.1037 53.6799 32.3395 53.7843 32.5486 53.8927C32.7573 53.9971 32.9351 54.117 33.082 54.2523C33.2289 54.3835 33.3409 54.5362 33.4181 54.7102C33.4993 54.884 33.54 55.0907 33.54 55.3304C33.54 55.6242 33.4743 55.8793 33.3431 56.0959C33.2153 56.3124 33.0431 56.4921 32.8265 56.6349C32.6103 56.7781 32.3611 56.8845 32.0789 56.9542C31.7967 57.0238 31.5009 57.0587 31.1915 57.0587C30.5809 57.0587 30.0512 56.9407 29.6025 56.7048H29.6029ZM37.755 56.8642C37.5309 56.9879 37.2351 57.0498 36.8676 57.0498C35.8279 57.0498 35.3081 56.4699 35.3081 55.3102V51.7965H34.2876V50.9846H35.3081V49.5352L36.2592 49.2277V50.9846H37.755V51.7965H36.2592V55.142C36.2592 55.5401 36.3268 55.8243 36.4621 55.9946C36.5971 56.1646 36.8212 56.2496 37.1343 56.2496C37.374 56.2496 37.5809 56.184 37.755 56.0527V56.8642ZM42.1214 51.947C41.9551 51.8195 41.7154 51.7557 41.4023 51.7557C40.9964 51.7557 40.6562 51.947 40.3818 52.3295C40.1112 52.7123 39.9759 53.2341 39.9759 53.8951V56.9218H39.0253V50.9846H39.9759V52.2081H39.9993C40.1346 51.7906 40.3414 51.4659 40.6195 51.234C40.8976 50.9981 41.2089 50.8801 41.5532 50.8801C41.8004 50.8801 41.9898 50.9073 42.1214 50.9617V51.947ZM47.4046 56.9204H46.4535V55.9923H46.4301C46.0167 56.7038 45.4081 57.0596 44.6043 57.0596C44.0128 57.0596 43.5487 56.9031 43.2121 56.5899C42.88 56.2768 42.7139 55.8612 42.7139 55.3431C42.7139 54.2337 43.367 53.5884 44.6732 53.4071L46.4535 53.1573C46.4535 52.1485 46.0457 51.6442 45.2301 51.6442C44.5151 51.6442 43.8696 51.8876 43.2937 52.3745V51.4004C43.8775 51.0295 44.5501 50.844 45.3117 50.844C46.707 50.844 47.4046 51.5823 47.4046 53.0588V56.9204ZM46.4535 53.9171L45.0215 54.114C44.5809 54.1759 44.2484 54.286 44.024 54.4445C43.8 54.5992 43.6879 54.8756 43.6879 55.2737C43.6879 55.5637 43.7904 55.8015 43.9954 55.9871C44.2042 56.1684 44.4806 56.259 44.8246 56.259C45.2962 56.259 45.6846 56.0949 45.99 55.7668C46.2993 55.4343 46.454 55.0148 46.454 54.5082L46.4535 53.9171ZM50.1703 56.0626H50.1468V59.6518H49.1962V50.9832H50.1473V52.0266H50.1703C50.6381 51.2382 51.3223 50.844 52.2229 50.844C52.9882 50.844 53.5854 51.1107 54.0145 51.6442C54.4436 52.1735 54.6581 52.8848 54.6581 53.7779C54.6581 54.7713 54.4165 55.5676 53.9334 56.1667C53.4503 56.762 52.7893 57.0596 51.9506 57.0596C51.1812 57.0596 50.5878 56.7271 50.1703 56.0621V56.0626ZM50.1468 53.6677V54.4974C50.1468 54.9881 50.3054 55.4054 50.6226 55.7495C50.9436 56.0898 51.3493 56.2599 51.84 56.2599C52.4162 56.2599 52.8667 56.0396 53.1914 55.599C53.5195 55.1584 53.6836 54.5456 53.6836 53.7606C53.6836 53.0996 53.5311 52.5817 53.2261 52.2067C52.9207 51.8317 52.5071 51.6442 51.9853 51.6442C51.4321 51.6442 50.9876 51.8374 50.6517 52.224C50.3151 52.6068 50.1468 53.0881 50.1468 53.6677Z" fill="#7952B3"/>
</svg>
