<svg width="60" height="60" viewBox="0 0 60 60" fill="none" xmlns="http://www.w3.org/2000/svg">
<path d="M0.937969 42.4022H2.86359V34.7977L5.84484 41.4272C6.19641 42.2297 6.67781 42.5133 7.62234 42.5133C8.56687 42.5133 9.03 42.2297 9.38156 41.4272L12.3628 34.7977V42.4022H14.2884V34.8104C14.2884 34.0697 13.9922 33.7112 13.3809 33.5265C11.918 33.0699 10.9364 33.4651 10.492 34.4527L7.56656 40.9955L4.73391 34.4522C4.30781 33.4651 3.30797 33.0699 1.845 33.526C1.23375 33.7112 0.9375 34.0693 0.9375 34.8099V42.4022H0.937969ZM15.8902 36.2119H17.8153V40.4016C17.7975 40.629 17.8884 41.1633 18.9431 41.1802C19.4812 41.1887 23.0972 41.1802 23.1309 41.1802V36.1913H25.0608C25.0697 36.1913 25.0589 42.9947 25.0589 43.0229C25.0692 44.701 22.9772 45.0652 22.0125 45.0933H15.9319V43.7977C15.9422 43.7977 22.0083 43.7991 22.0233 43.7972C23.2631 43.6665 23.1164 43.0505 23.1159 42.8433V42.338H19.0233C17.1192 42.3207 15.9061 41.4896 15.8906 40.5333C15.8897 40.4457 15.9323 36.2541 15.8902 36.2119Z" fill="#00618A"/>
<path d="M26.5453 42.4021H32.0822C32.7305 42.4021 33.3605 42.2667 33.8602 42.0323C34.6931 41.6498 35.1005 41.1313 35.1005 40.4517V39.0445C35.1005 38.489 34.6378 37.9701 33.7303 37.6251C33.2489 37.4395 32.6559 37.3415 32.0817 37.3415H29.7483C28.9706 37.3415 28.6003 37.1071 28.508 36.5887C28.4897 36.5268 28.4897 36.4776 28.4897 36.4157V35.5392C28.4897 35.4899 28.4897 35.4403 28.508 35.3788C28.6003 34.9837 28.8042 34.8726 29.4895 34.8107L29.6747 34.7985H35.1745V33.5151H29.7675C28.9899 33.5151 28.5825 33.5643 28.2122 33.6754C27.0642 34.0335 26.5636 34.6012 26.5636 35.5888V36.712C26.5636 37.5763 27.5456 38.317 29.1933 38.4899C29.3789 38.5017 29.5636 38.5148 29.7488 38.5148H31.7489C31.823 38.5148 31.897 38.5148 31.9528 38.5265C32.5641 38.5757 32.8228 38.6873 33.0084 38.909C33.056 38.9529 33.0938 39.0064 33.1192 39.066C33.1446 39.1255 33.1572 39.1897 33.1561 39.2545V40.3781C33.1561 40.5135 33.0638 40.6865 32.8786 40.8346C32.7122 40.9827 32.4342 41.0817 32.0639 41.1065L31.86 41.1187H26.5453V42.4021ZM47.1145 40.1681C47.1145 41.4885 48.0961 42.2292 50.077 42.3777C50.2622 42.3899 50.4473 42.4021 50.6325 42.4021H55.6509V41.1187H50.5959C49.4663 41.1187 49.0406 40.8346 49.0406 40.1554V33.5142H47.115V40.1681H47.1145ZM36.3295 40.2346V35.6573C36.3295 34.4948 37.1461 33.7893 38.7605 33.5667C38.9325 33.542 39.1061 33.5296 39.2798 33.5296H42.9356C43.1213 33.5296 43.2881 33.5418 43.4733 33.5667C45.0877 33.7893 45.9047 34.4943 45.9047 35.6573V40.2346C45.9047 41.1787 45.5578 41.6831 44.7586 42.0121L46.6561 43.7245H44.4197L42.885 42.3388L41.34 42.4368H39.2798C38.8971 42.4344 38.5165 42.3803 38.1483 42.276C36.9234 41.9423 36.3295 41.2987 36.3295 40.2346ZM38.408 40.1235C38.408 40.1854 38.4263 40.2477 38.445 40.3218C38.5561 40.8538 39.0577 41.1506 39.818 41.1506H41.5673L39.9605 39.6998H42.1969L43.598 40.9654C43.8567 40.8271 44.0264 40.6171 44.0859 40.3467C44.1042 40.2848 44.1042 40.2229 44.1042 40.161V35.7698C44.1042 35.7206 44.1042 35.6582 44.0859 35.5963C43.9744 35.1013 43.4733 34.8173 42.7313 34.8173H39.8175C38.9644 34.8173 38.4075 35.1885 38.4075 35.7698V40.1235H38.408Z" fill="#E48E00"/>
<path d="M57.345 31.3839C56.1614 31.3515 55.2572 31.4617 54.4837 31.7875C54.2639 31.8803 53.9137 31.8826 53.8781 32.1578C53.9986 32.2848 54.0173 32.4737 54.1134 32.6293C54.2981 32.9279 54.6098 33.3282 54.8878 33.5378C55.1911 33.767 55.5042 34.0126 55.8305 34.2114C56.4094 34.5648 57.0562 34.7664 57.6145 35.1198C57.9431 35.3289 58.2694 35.5914 58.5905 35.8272C58.7494 35.9429 58.8553 36.1243 59.062 36.197V36.1637C58.9537 36.0259 58.9256 35.8365 58.8262 35.6922L58.3884 35.2543C57.9605 34.6862 57.4176 34.1879 56.8397 33.7736C56.3794 33.4431 55.3491 32.9964 55.1569 32.4606L55.1231 32.4273C55.4494 32.3903 55.8319 32.2722 56.1328 32.1915C56.639 32.0556 57.0914 32.0907 57.6141 31.9557L58.3209 31.7532V31.6192C58.057 31.3482 57.8681 30.9892 57.5803 30.744C56.827 30.1023 56.0039 29.4611 55.1569 28.9257C54.6872 28.6295 54.1064 28.4368 53.6081 28.1856C53.4412 28.1007 53.1469 28.0572 53.0358 27.9161C52.7737 27.5828 52.6317 27.1604 52.4297 26.7718C51.9982 25.9324 51.5941 25.0791 51.218 24.2134C50.963 23.6298 50.7961 23.0542 50.4778 22.5306C48.9492 20.0176 47.3039 18.5007 44.7553 17.0101C44.213 16.6928 43.56 16.5681 42.8705 16.4045L41.7595 16.337C41.534 16.2428 41.2987 15.9662 41.0864 15.8322C40.2417 15.2987 38.0761 14.1386 37.4508 15.6643C37.0561 16.6272 38.0414 17.5665 38.3934 18.0545C38.6405 18.3967 38.9573 18.7801 39.134 19.165C39.2503 19.4181 39.27 19.6717 39.3698 19.9393C39.614 20.5984 39.8273 21.3161 40.1437 21.925C40.3036 22.2334 40.4803 22.5582 40.6823 22.8339C40.8061 23.0026 41.0189 23.0776 41.0522 23.3387C40.8445 23.6293 40.8323 24.0812 40.7156 24.4492C40.1897 26.1081 40.388 28.1701 41.1534 29.3978C41.3883 29.7751 41.9414 30.5832 42.7017 30.2729C43.3669 30.002 43.2187 29.1625 43.4091 28.4214C43.4522 28.254 43.4255 28.1303 43.5098 28.0178V28.0515L44.1159 29.2632C44.5645 29.9856 45.36 30.7398 46.0345 31.2493C46.3842 31.5132 46.6598 31.9703 47.1117 32.1245V32.0903H47.0784C46.9903 31.9539 46.8539 31.8976 46.7414 31.7875C46.478 31.5292 46.185 31.2086 45.9675 30.9123C45.3539 30.0798 44.812 29.1681 44.318 28.2193C44.0822 27.7665 43.8773 27.2668 43.6786 26.8056C43.6017 26.6279 43.6026 26.3589 43.4433 26.2675C43.2248 26.605 42.9047 26.8782 42.7359 27.2772C42.4669 27.9147 42.4322 28.6923 42.3323 29.4986L42.2648 29.5318C41.7956 29.4189 41.6311 28.9361 41.4567 28.5222C41.0161 27.4754 40.934 25.7893 41.3222 24.5842C41.4225 24.272 41.8758 23.29 41.692 23.0017C41.6044 22.7143 41.3151 22.5484 41.1539 22.3281C40.9423 22.0333 40.7618 21.7174 40.6153 21.3854C40.2544 20.5693 40.0861 19.6529 39.7069 18.8275C39.525 18.4328 39.2184 18.0339 38.9662 17.6832C38.6873 17.2942 38.3747 17.0082 38.1581 16.5386C38.0812 16.3717 37.9767 16.104 38.0906 15.9325C38.1267 15.8167 38.1787 15.7684 38.2931 15.7304C38.4881 15.58 39.0319 15.7806 39.2353 15.865C39.7753 16.0895 40.2258 16.3028 40.6833 16.6056C40.9026 16.7514 41.1244 17.0326 41.3901 17.1104H41.693C42.1669 17.2192 42.698 17.1437 43.1405 17.2782C43.9233 17.5164 44.6245 17.8862 45.2611 18.2884C47.2012 19.5137 48.787 21.2575 49.8726 23.3378C50.047 23.6729 50.123 23.9922 50.2762 24.3475C50.5865 25.0637 50.9775 25.8011 51.2859 26.5018C51.5939 27.2007 51.8944 27.9062 52.3298 28.4879C52.5586 28.7936 53.4426 28.9576 53.8444 29.1273C54.1261 29.2464 54.5873 29.3706 54.8541 29.5309C55.3636 29.8384 55.8576 30.2045 56.3353 30.5411C56.5739 30.7107 57.3084 31.0797 57.345 31.3839ZM42.2986 18.5593C42.0945 18.556 41.8908 18.5787 41.6925 18.6268V18.6601H41.7262C41.8439 18.9025 42.0516 19.0581 42.1973 19.2662L42.5344 19.9731L42.5676 19.9398C42.7762 19.7931 42.8714 19.5582 42.8705 19.1992C42.7866 19.1111 42.7744 19.0009 42.7022 18.8964C42.6065 18.7557 42.42 18.677 42.2986 18.5593Z" fill="#00618A"/>
</svg>
