<svg width="60" height="60" viewBox="0 0 60 60" fill="none" xmlns="http://www.w3.org/2000/svg">
<path fill-rule="evenodd" clip-rule="evenodd" d="M30 47.0532C13.4316 47.0532 0 38.0579 0 26.9612C0 15.8649 13.4316 6.86914 30 6.86914C46.5684 6.86914 60 15.8645 60 26.9612C60 38.0574 46.5684 47.0532 30 47.0532ZM34.5919 14.7249C21.9984 14.7249 11.7891 20.8745 11.7891 28.4607C11.7891 36.0465 21.9984 42.1965 34.5919 42.1965C47.1853 42.1965 56.4792 37.9918 56.4792 28.4607C56.4792 18.9324 47.1853 14.7249 34.5919 14.7249Z" fill="url(#paint0_linear_21_265)"/>
<path fill-rule="evenodd" clip-rule="evenodd" d="M45.6886 37.9842C45.6886 37.9842 47.5045 38.5321 48.5592 39.066C48.9248 39.2512 49.5586 39.6206 50.0151 40.1062C50.2833 40.3901 50.5076 40.7124 50.6808 41.0625L57.8367 53.1281L46.2708 53.1328L40.8628 42.9768C40.8628 42.9768 39.7551 41.0737 39.0736 40.522C38.505 40.0617 38.2626 39.8981 37.7006 39.8981H34.9528L34.9547 53.1257L24.7205 53.1299V19.3406H45.2723C45.2723 19.3406 54.6333 19.5093 54.6333 28.4151C54.6333 37.3209 45.6886 37.9837 45.6886 37.9837V37.9842ZM41.2369 26.67L35.0409 26.6657L35.0381 32.4117L41.2369 32.4093C41.2369 32.4093 44.1075 32.4004 44.1075 29.4867C44.1075 26.5148 41.2369 26.67 41.2369 26.67Z" fill="url(#paint1_linear_21_265)"/>
<defs>
<linearGradient id="paint0_linear_21_265" x1="0.000338431" y1="6.86472" x2="37.1591" y2="62.3463" gradientUnits="userSpaceOnUse">
<stop stop-color="#CBCED0"/>
<stop offset="1" stop-color="#84838B"/>
</linearGradient>
<linearGradient id="paint1_linear_21_265" x1="24.7205" y1="19.3404" x2="58.5056" y2="52.4491" gradientUnits="userSpaceOnUse">
<stop stop-color="#276DC3"/>
<stop offset="1" stop-color="#165CAA"/>
</linearGradient>
</defs>
</svg>
